Dark Feed 2013 DVDRiP x264 AC3-OFFLiNE

iMDB  
http://www.imdb.com/title/tt1430077

Source Dark Feed 2013 DVD5 WS NTSC DVDR BabyGirl21 - MANY THANKX

Media Info
Dark Feed 2013 DVDRiP x264 AC3-OFFLiNE.mp4
Format: MPEG-4
Format profile: Base Media
Codec ID: isom
File size: 1.50 GiB
Duration: 1h 25mn
Overall bit rate mode: Variable
Overall bit rate: 2 498 Kbps
Encoded date: UTC 2013-04-18 04:57:28
Tagged date: UTC 2013-04-18 04:57:28

Video
ID: 1
Format: AVC
Format/Info: Advanced Video Codec
Format profile: High@L4.1
Format settings, CABAC: Yes
Format settings, ReFrames: 3 frames
Codec ID: avc1
Codec ID/Info: Advanced Video Coding
Duration: 1h 25mn
Bit rate mode: Variable
Bit rate: 2 112 Kbps
Maximum bit rate: 40.0 Mbps
Width: 720 pixels
Height: 400 pixels
Display aspect ratio: 16:9
Frame rate mode: Constant
Frame rate: 23.976 fps
Color space: YUV
Chroma subsampling: 4:2:0
Bit depth: 8 bits
Scan type: Progressive
Bits/(Pixel*Frame): 0.306
Stream size: 1.27 GiB (85%)
Title: Dark Feed 2013 DVDRiP x264 AC3-OFFLiNE
Writing library: x264 core 130 r2273 b3065e6

Audio
ID: 2
Format: AC-3
Format/Info: Audio Coding 3
Mode extension: CM (complete main)
Format settings, Endianness: Big
Codec ID: ac-3
Duration: 1h 25mn
Bit rate mode: Constant
Bit rate: 384 Kbps
Channel(s): 6 channels
Channel positions: Front: L C R, Side: L R, LFE
Sampling rate: 48.0 KHz
Bit depth: 16 bits
Compression mode: Lossy
Stream size: 236 MiB (15%)
Title: 5.1
Language: English
